<svg width="40" height="40" viewBox="0 0 40 40" fill="none" xmlns="http://www.w3.org/2000/svg">
<rect width="40" height="40" rx="10" fill="#F8F8F8"/>
<path d="M20.02 28.53C17.69 28.53 15.36 28.16 13.15 27.42C12.31 27.13 11.67 26.54 11.39 25.77C11.1 25 11.2 24.15 11.66 23.39L12.81 21.48C13.05 21.08 13.27 20.28 13.27 19.81V16.92C13.27 13.2 16.3 10.17 20.02 10.17C23.74 10.17 26.77 13.2 26.77 16.92V19.81C26.77 20.27 26.99 21.08 27.23 21.49L28.37 23.39C28.8 24.11 28.88 24.98 28.59 25.77C28.3 26.56 27.67 27.16 26.88 27.42C24.68 28.16 22.35 28.53 20.02 28.53ZM20.02 11.67C17.13 11.67 14.77 14.02 14.77 16.92V19.81C14.77 20.54 14.47 21.62 14.1 22.25L12.95 24.16C12.73 24.53 12.67 24.92 12.8 25.25C12.92 25.59 13.22 25.85 13.63 25.99C17.81 27.39 22.24 27.39 26.42 25.99C26.78 25.87 27.06 25.6 27.19 25.24C27.32 24.88 27.29 24.49 27.09 24.16L25.94 22.25C25.56 21.6 25.27 20.53 25.27 19.8V16.92C25.27 14.02 22.92 11.67 20.02 11.67Z" fill="#BBBBBB"/>
<path d="M21.8801 11.9397C21.8101 11.9397 21.7401 11.9297 21.6701 11.9097C21.3801 11.8297 21.1001 11.7697 20.8301 11.7297C19.9801 11.6197 19.1601 11.6797 18.3901 11.9097C18.1101 11.9997 17.8101 11.9097 17.6201 11.6997C17.4301 11.4897 17.3701 11.1897 17.4801 10.9197C17.8901 9.86969 18.8901 9.17969 20.0301 9.17969C21.1701 9.17969 22.1701 9.85969 22.5801 10.9197C22.6801 11.1897 22.6301 11.4897 22.4401 11.6997C22.2901 11.8597 22.0801 11.9397 21.8801 11.9397Z" fill="#BBBBBB"/>
<path d="M20.02 30.8096C19.03 30.8096 18.07 30.4096 17.37 29.7096C16.67 29.0096 16.27 28.0496 16.27 27.0596H17.77C17.77 27.6496 18.01 28.2296 18.43 28.6496C18.85 29.0696 19.43 29.3096 20.02 29.3096C21.26 29.3096 22.27 28.2996 22.27 27.0596H23.77C23.77 29.1296 22.09 30.8096 20.02 30.8096Z" fill="#BBBBBB"/>
<circle cx="27" cy="13" r="5" fill="#FF7D33" stroke="#F8F8F8" stroke-width="2"/>
</svg>
