<svg width="40" height="40" viewBox="0 0 40 40" fill="none" xmlns="http://www.w3.org/2000/svg">
<rect width="40" height="40" rx="10" fill="#F8F8F8"/>
<path d="M20 23.75C17.93 23.75 16.25 22.07 16.25 20C16.25 17.93 17.93 16.25 20 16.25C22.07 16.25 23.75 17.93 23.75 20C23.75 22.07 22.07 23.75 20 23.75ZM20 17.75C18.76 17.75 17.75 18.76 17.75 20C17.75 21.24 18.76 22.25 20 22.25C21.24 22.25 22.25 21.24 22.25 20C22.25 18.76 21.24 17.75 20 17.75Z" fill="#BBBBBB"/>
<path d="M23.21 30.1903C23 30.1903 22.79 30.1603 22.58 30.1103C21.96 29.9403 21.44 29.5503 21.11 29.0003L20.99 28.8003C20.4 27.7803 19.59 27.7803 19 28.8003L18.89 28.9903C18.56 29.5503 18.04 29.9503 17.42 30.1103C16.79 30.2803 16.14 30.1903 15.59 29.8603L13.87 28.8703C13.26 28.5203 12.82 27.9503 12.63 27.2603C12.45 26.5703 12.54 25.8603 12.89 25.2503C13.18 24.7403 13.26 24.2803 13.09 23.9903C12.92 23.7003 12.49 23.5303 11.9 23.5303C10.44 23.5303 9.25 22.3403 9.25 20.8803V19.1203C9.25 17.6603 10.44 16.4703 11.9 16.4703C12.49 16.4703 12.92 16.3003 13.09 16.0103C13.26 15.7203 13.19 15.2603 12.89 14.7503C12.54 14.1403 12.45 13.4203 12.63 12.7403C12.81 12.0503 13.25 11.4803 13.87 11.1303L15.6 10.1403C16.73 9.47029 18.22 9.86029 18.9 11.0103L19.02 11.2103C19.61 12.2303 20.42 12.2303 21.01 11.2103L21.12 11.0203C21.8 9.86029 23.29 9.47029 24.43 10.1503L26.15 11.1403C26.76 11.4903 27.2 12.0603 27.39 12.7503C27.57 13.4403 27.48 14.1503 27.13 14.7603C26.84 15.2703 26.76 15.7303 26.93 16.0203C27.1 16.3103 27.53 16.4803 28.12 16.4803C29.58 16.4803 30.77 17.6703 30.77 19.1303V20.8903C30.77 22.3503 29.58 23.5403 28.12 23.5403C27.53 23.5403 27.1 23.7103 26.93 24.0003C26.76 24.2903 26.83 24.7503 27.13 25.2603C27.48 25.8703 27.58 26.5903 27.39 27.2703C27.21 27.9603 26.77 28.5303 26.15 28.8803L24.42 29.8703C24.04 30.0803 23.63 30.1903 23.21 30.1903ZM20 26.4903C20.89 26.4903 21.72 27.0503 22.29 28.0403L22.4 28.2303C22.52 28.4403 22.72 28.5903 22.96 28.6503C23.2 28.7103 23.44 28.6803 23.64 28.5603L25.37 27.5603C25.63 27.4103 25.83 27.1603 25.91 26.8603C25.99 26.5603 25.95 26.2503 25.8 25.9903C25.23 25.0103 25.16 24.0003 25.6 23.2303C26.04 22.4603 26.95 22.0203 28.09 22.0203C28.73 22.0203 29.24 21.5103 29.24 20.8703V19.1103C29.24 18.4803 28.73 17.9603 28.09 17.9603C26.95 17.9603 26.04 17.5203 25.6 16.7503C25.16 15.9803 25.23 14.9703 25.8 13.9903C25.95 13.7303 25.99 13.4203 25.91 13.1203C25.83 12.8203 25.64 12.5803 25.38 12.4203L23.65 11.4303C23.22 11.1703 22.65 11.3203 22.39 11.7603L22.28 11.9503C21.71 12.9403 20.88 13.5003 19.99 13.5003C19.1 13.5003 18.27 12.9403 17.7 11.9503L17.59 11.7503C17.34 11.3303 16.78 11.1803 16.35 11.4303L14.62 12.4303C14.36 12.5803 14.16 12.8303 14.08 13.1303C14 13.4303 14.04 13.7403 14.19 14.0003C14.76 14.9803 14.83 15.9903 14.39 16.7603C13.95 17.5303 13.04 17.9703 11.9 17.9703C11.26 17.9703 10.75 18.4803 10.75 19.1203V20.8803C10.75 21.5103 11.26 22.0303 11.9 22.0303C13.04 22.0303 13.95 22.4703 14.39 23.2403C14.83 24.0103 14.76 25.0203 14.19 26.0003C14.04 26.2603 14 26.5703 14.08 26.8703C14.16 27.1703 14.35 27.4103 14.61 27.5703L16.34 28.5603C16.55 28.6903 16.8 28.7203 17.03 28.6603C17.27 28.6003 17.47 28.4403 17.6 28.2303L17.71 28.0403C18.28 27.0603 19.11 26.4903 20 26.4903Z" fill="#BBBBBB"/>
</svg>
